<svg xmlns="http://www.w3.org/2000/svg" viewBox="0 0 320 160" fill="none">
  <!-- F-150 Lightning silhouette -->
  <rect x="60" y="95" width="170" height="35" rx="4" fill="#1a212c" stroke="#3a4a5c" stroke-width="1.5"/>
  <rect x="85" y="65" width="130" height="30" rx="4" fill="#1a212c" stroke="#3a4a5c" stroke-width="1.5"/>
  <rect x="80" y="55" width="90" height="14" rx="3" fill="#1a212c" stroke="#3a4a5c" stroke-width="1.5"/>
  <path d="M230 95 l15 0 q8 0 8 8 l0 27 q0 8 -8 8 l-175 0 q-8 0 -8 -8 l0 -27 q0 -8 8 -8 l15 0" fill="#141922" stroke="#3a4a5c" stroke-width="1.5"/>
  <path d="M60 130 l0 8 q0 4 4 4 l12 0 q4 0 4 -4 l0 -8" fill="#141922" stroke="#3a4a5c" stroke-width="1.5"/>
  <path d="M215 130 l0 8 q0 4 4 4 l12 0 q4 0 4 -4 l0 -8" fill="#141922" stroke="#3a4a5c" stroke-width="1.5"/>
  <circle cx="72" cy="138" r="12" fill="#141922" stroke="#3a4a5c" stroke-width="1.5"/>
  <circle cx="72" cy="138" r="6" fill="#262e3a"/>
  <circle cx="228" cy="138" r="12" fill="#141922" stroke="#3a4a5c" stroke-width="1.5"/>
  <circle cx="228" cy="138" r="6" fill="#262e3a"/>
  <rect x="140" y="58" width="20" height="6" rx="2" fill="#262e3a"/>
  <rect x="80" y="69" width="8" height="12" rx="1" fill="#2a3545"/>
  <rect x="90" y="69" width="8" height="12" rx="1" fill="#2a3545"/>
  <rect x="100" y="69" width="8" height="12" rx="1" fill="#2a3545"/>
  <rect x="110" y="69" width="8" height="12" rx="1" fill="#2a3545"/>
  <rect x="175" y="69" width="8" height="12" rx="1" fill="#2a3545"/>
  <rect x="185" y="69" width="8" height="12" rx="1" fill="#2a3545"/>
  <rect x="195" y="69" width="8" height="12" rx="1" fill="#2a3545"/>
  <rect x="205" y="69" width="8" height="12" rx="1" fill="#2a3545"/>
  <text x="160" y="42" text-anchor="middle" font-size="10" fill="#3a4a5c" font-family="sans-serif">F-150 Lightning</text>
  <text x="300" y="148" text-anchor="end" font-size="8" fill="#262e3a" font-family="sans-serif">⚡</text>
</svg>
